<mxfile host="app.diagrams.net" modified="2020-12-03T19:25:02.755Z" agent="5.0 (Windows NT 10.0; Win64; x64) AppleWebKit/537.36 (KHTML, like Gecko) Chrome/87.0.4280.88 Safari/537.36" etag="i30PIZugEBwpRb6s2Dre" version="13.10.7" type="github">
  <diagram name="Page-1" id="74e2e168-ea6b-b213-b513-2b3c1d86103e">
    <mxGraphModel dx="868" dy="482" grid="1" gridSize="10" guides="1" tooltips="1" connect="1" arrows="1" fold="1" page="1" pageScale="1" pageWidth="1100" pageHeight="850" background="#ffffff" math="0" shadow="0">
      <root>
        <mxCell id="0" />
        <mxCell id="1" parent="0" />
        <mxCell id="77e6c97f196da883-1" value="App Workflow" style="swimlane;html=1;childLayout=stackLayout;startSize=20;rounded=0;shadow=0;labelBackgroundColor=none;strokeWidth=1;fontFamily=Verdana;fontSize=8;align=center;" parent="1" vertex="1">
          <mxGeometry x="70" y="20" width="960" height="770" as="geometry" />
        </mxCell>
        <mxCell id="77e6c97f196da883-2" value="Step 1" style="swimlane;html=1;startSize=20;" parent="77e6c97f196da883-1" vertex="1">
          <mxGeometry y="20" width="160" height="750" as="geometry" />
        </mxCell>
        <mxCell id="77e6c97f196da883-8" value="&lt;font style=&quot;font-size: 16px&quot;&gt;Start&lt;/font&gt;" style="rounded=1;whiteSpace=wrap;html=1;shadow=0;labelBackgroundColor=none;strokeWidth=1;fontFamily=Verdana;fontSize=8;align=center;" parent="77e6c97f196da883-2" vertex="1">
          <mxGeometry x="20" y="30" width="100" height="60" as="geometry" />
        </mxCell>
        <mxCell id="77e6c97f196da883-26" style="edgeStyle=orthogonalEdgeStyle;rounded=1;html=1;labelBackgroundColor=none;startArrow=none;startFill=0;startSize=5;endArrow=classicThin;endFill=1;endSize=5;jettySize=auto;orthogonalLoop=1;strokeWidth=1;fontFamily=Verdana;fontSize=8;entryX=0;entryY=0.25;entryDx=0;entryDy=0;" parent="77e6c97f196da883-1" source="77e6c97f196da883-8" target="77e6c97f196da883-11" edge="1">
          <mxGeometry relative="1" as="geometry" />
        </mxCell>
        <mxCell id="77e6c97f196da883-27" style="edgeStyle=orthogonalEdgeStyle;rounded=1;html=1;labelBackgroundColor=none;startArrow=none;startFill=0;startSize=5;endArrow=classicThin;endFill=1;endSize=5;jettySize=auto;orthogonalLoop=1;strokeWidth=1;fontFamily=Verdana;fontSize=8" parent="77e6c97f196da883-1" source="77e6c97f196da883-11" target="77e6c97f196da883-9" edge="1">
          <mxGeometry relative="1" as="geometry">
            <Array as="points">
              <mxPoint x="240" y="155" />
              <mxPoint x="70" y="155" />
            </Array>
          </mxGeometry>
        </mxCell>
        <mxCell id="77e6c97f196da883-3" value="Step 2" style="swimlane;html=1;startSize=20;" parent="77e6c97f196da883-1" vertex="1">
          <mxGeometry x="160" y="20" width="160" height="750" as="geometry" />
        </mxCell>
        <mxCell id="77e6c97f196da883-11" value="&lt;font style=&quot;font-size: 16px&quot;&gt;User Login&lt;/font&gt;" style="rounded=1;whiteSpace=wrap;html=1;shadow=0;labelBackgroundColor=none;strokeWidth=1;fontFamily=Verdana;fontSize=8;align=center;" parent="77e6c97f196da883-3" vertex="1">
          <mxGeometry x="40" y="100" width="100" height="60" as="geometry" />
        </mxCell>
        <mxCell id="swHLIQ91O9-0J6ctx5I5-2" value="&lt;font style=&quot;font-size: 16px&quot;&gt;User SignUp&lt;/font&gt;" style="rounded=1;whiteSpace=wrap;html=1;" vertex="1" parent="77e6c97f196da883-3">
          <mxGeometry x="40" y="30" width="100" height="60" as="geometry" />
        </mxCell>
        <mxCell id="77e6c97f196da883-4" value="Step 3" style="swimlane;html=1;startSize=20;" parent="77e6c97f196da883-1" vertex="1">
          <mxGeometry x="320" y="20" width="160" height="750" as="geometry" />
        </mxCell>
        <mxCell id="77e6c97f196da883-9" value="&lt;font style=&quot;font-size: 16px&quot;&gt;Daily Mood Survey&lt;/font&gt;" style="rounded=1;whiteSpace=wrap;html=1;shadow=0;labelBackgroundColor=none;strokeWidth=1;fontFamily=Verdana;fontSize=8;align=center;" parent="77e6c97f196da883-4" vertex="1">
          <mxGeometry x="30" y="180" width="100" height="60" as="geometry" />
        </mxCell>
        <mxCell id="swHLIQ91O9-0J6ctx5I5-6" value="&lt;font style=&quot;font-size: 16px&quot;&gt;Mental Health&amp;nbsp; Test DB7&lt;/font&gt;" style="rounded=1;whiteSpace=wrap;html=1;" vertex="1" parent="77e6c97f196da883-4">
          <mxGeometry x="20" y="30" width="120" height="60" as="geometry" />
        </mxCell>
        <mxCell id="77e6c97f196da883-5" value="Step 4" style="swimlane;html=1;startSize=20;" parent="77e6c97f196da883-1" vertex="1">
          <mxGeometry x="480" y="20" width="160" height="750" as="geometry" />
        </mxCell>
        <mxCell id="swHLIQ91O9-0J6ctx5I5-8" value="&lt;font style=&quot;font-size: 16px&quot;&gt;User &lt;br&gt;Dashboard&lt;br&gt;&lt;br&gt;&lt;div style=&quot;text-align: left&quot;&gt;&lt;span&gt;{&lt;/span&gt;&lt;/div&gt;&lt;div style=&quot;text-align: left&quot;&gt;&lt;span&gt;Moode Stats, Scores,&amp;nbsp;&lt;/span&gt;&lt;/div&gt;&lt;div style=&quot;text-align: left&quot;&gt;&lt;span&gt;Goals,&amp;nbsp;&lt;/span&gt;&lt;/div&gt;&lt;div style=&quot;text-align: left&quot;&gt;&lt;span&gt;Activities: {&lt;/span&gt;&lt;/div&gt;&lt;div style=&quot;text-align: left&quot;&gt;&lt;span&gt;Chattherapy,&lt;/span&gt;&lt;/div&gt;&lt;div style=&quot;text-align: left&quot;&gt;&lt;span&gt;Meditation Audio player&lt;/span&gt;&lt;/div&gt;&lt;div style=&quot;text-align: left&quot;&gt;&lt;span&gt;}&amp;nbsp;&lt;/span&gt;&lt;/div&gt;&lt;div style=&quot;text-align: left&quot;&gt;&lt;span&gt;}&lt;/span&gt;&lt;/div&gt;&lt;/font&gt;" style="rounded=1;whiteSpace=wrap;html=1;" vertex="1" parent="77e6c97f196da883-5">
          <mxGeometry x="10" y="110" width="140" height="320" as="geometry" />
        </mxCell>
        <mxCell id="swHLIQ91O9-0J6ctx5I5-11" value="&lt;div style=&quot;text-align: left&quot;&gt;&lt;span style=&quot;font-size: 16px&quot;&gt;Choose Activity&lt;/span&gt;&lt;/div&gt;" style="rhombus;whiteSpace=wrap;html=1;" vertex="1" parent="77e6c97f196da883-5">
          <mxGeometry x="15.66" y="460" width="124.34" height="120" as="geometry" />
        </mxCell>
        <mxCell id="swHLIQ91O9-0J6ctx5I5-12" value="" style="endArrow=classic;html=1;exitX=0.5;exitY=1;exitDx=0;exitDy=0;entryX=0.5;entryY=0;entryDx=0;entryDy=0;" edge="1" parent="77e6c97f196da883-5" source="swHLIQ91O9-0J6ctx5I5-8" target="swHLIQ91O9-0J6ctx5I5-11">
          <mxGeometry width="50" height="50" relative="1" as="geometry">
            <mxPoint x="-130" y="480" as="sourcePoint" />
            <mxPoint x="-80" y="430" as="targetPoint" />
          </mxGeometry>
        </mxCell>
        <mxCell id="77e6c97f196da883-6" value="Step 5" style="swimlane;html=1;startSize=20;" parent="77e6c97f196da883-1" vertex="1">
          <mxGeometry x="640" y="20" width="160" height="750" as="geometry" />
        </mxCell>
        <mxCell id="77e6c97f196da883-24" value="&lt;font style=&quot;font-size: 16px&quot;&gt;Chattehrapy&lt;/font&gt;" style="rounded=1;whiteSpace=wrap;html=1;shadow=0;labelBackgroundColor=none;strokeWidth=1;fontFamily=Verdana;fontSize=8;align=center;" parent="77e6c97f196da883-6" vertex="1">
          <mxGeometry x="40" y="450" width="100" height="60" as="geometry" />
        </mxCell>
        <mxCell id="swHLIQ91O9-0J6ctx5I5-14" value="&lt;font style=&quot;font-size: 16px&quot;&gt;Meditation AudioPlayer&lt;/font&gt;" style="rounded=1;whiteSpace=wrap;html=1;shadow=0;labelBackgroundColor=none;strokeWidth=1;fontFamily=Verdana;fontSize=8;align=center;" vertex="1" parent="77e6c97f196da883-6">
          <mxGeometry x="30" y="570" width="100" height="60" as="geometry" />
        </mxCell>
        <mxCell id="77e6c97f196da883-7" value="Lane 6" style="swimlane;html=1;startSize=20;" parent="77e6c97f196da883-1" vertex="1">
          <mxGeometry x="800" y="20" width="160" height="750" as="geometry" />
        </mxCell>
        <mxCell id="swHLIQ91O9-0J6ctx5I5-13" value="&lt;font style=&quot;font-size: 16px&quot;&gt;Track Progress&lt;br&gt;Updates: Moode Stats, Scores, Goals Accomplishments&lt;/font&gt;" style="rounded=1;whiteSpace=wrap;html=1;" vertex="1" parent="77e6c97f196da883-7">
          <mxGeometry x="10" y="510" width="140" height="180" as="geometry" />
        </mxCell>
        <mxCell id="swHLIQ91O9-0J6ctx5I5-4" value="" style="endArrow=classic;html=1;" edge="1" parent="77e6c97f196da883-1" source="77e6c97f196da883-8" target="swHLIQ91O9-0J6ctx5I5-2">
          <mxGeometry width="50" height="50" relative="1" as="geometry">
            <mxPoint x="80" y="80" as="sourcePoint" />
            <mxPoint x="130" y="30" as="targetPoint" />
          </mxGeometry>
        </mxCell>
        <mxCell id="swHLIQ91O9-0J6ctx5I5-7" value="" style="endArrow=classic;html=1;" edge="1" parent="77e6c97f196da883-1" source="swHLIQ91O9-0J6ctx5I5-2" target="swHLIQ91O9-0J6ctx5I5-6">
          <mxGeometry width="50" height="50" relative="1" as="geometry">
            <mxPoint x="280" y="105" as="sourcePoint" />
            <mxPoint x="330" y="55" as="targetPoint" />
          </mxGeometry>
        </mxCell>
        <mxCell id="swHLIQ91O9-0J6ctx5I5-9" value="" style="endArrow=classic;html=1;" edge="1" parent="77e6c97f196da883-1" target="swHLIQ91O9-0J6ctx5I5-8">
          <mxGeometry width="50" height="50" relative="1" as="geometry">
            <mxPoint x="460" y="70" as="sourcePoint" />
            <mxPoint x="400" y="30" as="targetPoint" />
            <Array as="points">
              <mxPoint x="560" y="70" />
            </Array>
          </mxGeometry>
        </mxCell>
        <mxCell id="swHLIQ91O9-0J6ctx5I5-10" value="" style="endArrow=classic;html=1;exitX=0.5;exitY=1;exitDx=0;exitDy=0;" edge="1" parent="77e6c97f196da883-1" source="77e6c97f196da883-9" target="swHLIQ91O9-0J6ctx5I5-8">
          <mxGeometry width="50" height="50" relative="1" as="geometry">
            <mxPoint x="350" y="380" as="sourcePoint" />
            <mxPoint x="400" y="330" as="targetPoint" />
            <Array as="points">
              <mxPoint x="400" y="290" />
            </Array>
          </mxGeometry>
        </mxCell>
        <mxCell id="swHLIQ91O9-0J6ctx5I5-16" value="" style="endArrow=classic;html=1;exitX=1;exitY=0.5;exitDx=0;exitDy=0;entryX=0;entryY=0.5;entryDx=0;entryDy=0;" edge="1" parent="77e6c97f196da883-1" source="swHLIQ91O9-0J6ctx5I5-11" target="77e6c97f196da883-24">
          <mxGeometry width="50" height="50" relative="1" as="geometry">
            <mxPoint x="670" y="600" as="sourcePoint" />
            <mxPoint x="720" y="550" as="targetPoint" />
            <Array as="points">
              <mxPoint x="620" y="500" />
            </Array>
          </mxGeometry>
        </mxCell>
        <mxCell id="swHLIQ91O9-0J6ctx5I5-17" value="" style="endArrow=classic;html=1;exitX=0.5;exitY=1;exitDx=0;exitDy=0;entryX=0;entryY=0.5;entryDx=0;entryDy=0;" edge="1" parent="77e6c97f196da883-1" source="swHLIQ91O9-0J6ctx5I5-11" target="swHLIQ91O9-0J6ctx5I5-14">
          <mxGeometry width="50" height="50" relative="1" as="geometry">
            <mxPoint x="670" y="600" as="sourcePoint" />
            <mxPoint x="720" y="550" as="targetPoint" />
            <Array as="points">
              <mxPoint x="558" y="620" />
            </Array>
          </mxGeometry>
        </mxCell>
        <mxCell id="swHLIQ91O9-0J6ctx5I5-18" value="" style="endArrow=classic;html=1;exitX=1;exitY=0.5;exitDx=0;exitDy=0;" edge="1" parent="77e6c97f196da883-1" source="77e6c97f196da883-24">
          <mxGeometry width="50" height="50" relative="1" as="geometry">
            <mxPoint x="670" y="600" as="sourcePoint" />
            <mxPoint x="910" y="530" as="targetPoint" />
            <Array as="points">
              <mxPoint x="910" y="500" />
            </Array>
          </mxGeometry>
        </mxCell>
        <mxCell id="swHLIQ91O9-0J6ctx5I5-19" value="" style="endArrow=classic;html=1;exitX=0.5;exitY=1;exitDx=0;exitDy=0;entryX=0.686;entryY=1;entryDx=0;entryDy=0;entryPerimeter=0;" edge="1" parent="77e6c97f196da883-1" source="swHLIQ91O9-0J6ctx5I5-14" target="swHLIQ91O9-0J6ctx5I5-13">
          <mxGeometry width="50" height="50" relative="1" as="geometry">
            <mxPoint x="670" y="700" as="sourcePoint" />
            <mxPoint x="720" y="650" as="targetPoint" />
            <Array as="points">
              <mxPoint x="720" y="740" />
              <mxPoint x="906" y="740" />
            </Array>
          </mxGeometry>
        </mxCell>
        <mxCell id="swHLIQ91O9-0J6ctx5I5-20" value="" style="endArrow=classic;html=1;exitX=1;exitY=0.5;exitDx=0;exitDy=0;" edge="1" parent="1" source="swHLIQ91O9-0J6ctx5I5-13">
          <mxGeometry width="50" height="50" relative="1" as="geometry">
            <mxPoint x="820" y="720" as="sourcePoint" />
            <mxPoint x="1100" y="640" as="targetPoint" />
          </mxGeometry>
        </mxCell>
        <mxCell id="swHLIQ91O9-0J6ctx5I5-21" value="&lt;font style=&quot;font-size: 16px&quot;&gt;Finish&lt;/font&gt;" style="rounded=1;whiteSpace=wrap;html=1;" vertex="1" parent="1">
          <mxGeometry x="1100" y="610" width="120" height="60" as="geometry" />
        </mxCell>
      </root>
    </mxGraphModel>
  </diagram>
</mxfile>
